<mxfile host="drawio-plugin" modified="2021-11-29T09:54:01.107Z" agent="5.0 (Windows NT 6.2; Win64; x64) AppleWebKit/537.36 (KHTML, like Gecko) Chrome/89.0.4389.114 Safari/537.36" etag="iQ7BERAjUHZVBuyrpK7w" version="14.7.4" type="embed"><diagram id="AH1xkY92VXm6v2RYYMqo" name="Page-1"><mxGraphModel dx="1048" dy="742" grid="1" gridSize="10" guides="1" tooltips="1" connect="1" arrows="1" fold="1" page="1" pageScale="1" pageWidth="850" pageHeight="1100" math="0" shadow="0"><root><mxCell id="0"/><mxCell id="1" parent="0"/><mxCell id="57" value="&lt;font style=&quot;font-size: 13px&quot;&gt;&lt;font color=&quot;#cc00cc&quot;&gt;БМС3&lt;br&gt;&lt;br&gt;&lt;br&gt;&lt;br&gt;&lt;/font&gt;&lt;br&gt;&lt;/font&gt;" style="rounded=1;whiteSpace=wrap;html=1;fillColor=none;dashed=1;align=left;strokeColor=#CC00CC;" parent="1" vertex="1"><mxGeometry x="750" y="276.5" width="130" height="82.5" as="geometry"/></mxCell><mxCell id="56" value="&lt;div&gt;&lt;span style=&quot;font-size: 14px&quot;&gt;&lt;font color=&quot;#cccc00&quot;&gt;&amp;nbsp;БМС2&lt;/font&gt;&lt;/span&gt;&lt;/div&gt;&lt;font&gt;&lt;div&gt;&lt;span style=&quot;font-size: 14px&quot;&gt;&lt;font color=&quot;#cccc00&quot;&gt;&lt;br&gt;&lt;/font&gt;&lt;/span&gt;&lt;/div&gt;&lt;div&gt;&lt;span style=&quot;font-size: 14px&quot;&gt;&lt;font color=&quot;#cccc00&quot;&gt;&lt;br&gt;&lt;/font&gt;&lt;/span&gt;&lt;/div&gt;&lt;div&gt;&lt;font color=&quot;#cccc00&quot;&gt;&lt;br&gt;&lt;/font&gt;&lt;/div&gt;&lt;div&gt;&lt;font color=&quot;#cccc00&quot;&gt;&lt;br&gt;&lt;/font&gt;&lt;/div&gt;&lt;div&gt;&lt;br&gt;&lt;/div&gt;&lt;/font&gt;" style="rounded=1;whiteSpace=wrap;html=1;fillColor=none;dashed=1;align=right;shadow=0;strokeColor=#CCCC00;" parent="1" vertex="1"><mxGeometry x="602" y="375" width="268" height="350.5" as="geometry"/></mxCell><mxCell id="55" value="&lt;font style=&quot;font-size: 14px&quot;&gt;&lt;font color=&quot;#007fff&quot; style=&quot;font-size: 14px&quot;&gt;&amp;nbsp;БМС1&lt;br&gt;&lt;br&gt;&lt;br&gt;&lt;br&gt;&lt;br&gt;&lt;/font&gt;&lt;br&gt;&lt;/font&gt;" style="rounded=1;whiteSpace=wrap;html=1;fillColor=none;dashed=1;align=left;shadow=0;strokeColor=#007FFF;" parent="1" vertex="1"><mxGeometry x="30" y="370" width="558" height="487.5" as="geometry"/></mxCell><mxCell id="21" style="edgeStyle=orthogonalEdgeStyle;rounded=0;orthogonalLoop=1;jettySize=auto;html=1;exitX=0.5;exitY=1;exitDx=0;exitDy=0;entryX=0.5;entryY=0;entryDx=0;entryDy=0;" parent="1" source="2" target="4" edge="1"><mxGeometry relative="1" as="geometry"/></mxCell><mxCell id="2" value="Начало" style="ellipse;whiteSpace=wrap;html=1;" parent="1" vertex="1"><mxGeometry x="227" y="40" width="110" height="40" as="geometry"/></mxCell><mxCell id="3" value="Конец" style="ellipse;whiteSpace=wrap;html=1;" parent="1" vertex="1"><mxGeometry x="760" y="300" width="110" height="40" as="geometry"/></mxCell><mxCell id="22" style="edgeStyle=orthogonalEdgeStyle;rounded=0;orthogonalLoop=1;jettySize=auto;html=1;exitX=0.5;exitY=1;exitDx=0;exitDy=0;entryX=0.5;entryY=0;entryDx=0;entryDy=0;" parent="1" source="4" target="6" edge="1"><mxGeometry relative="1" as="geometry"/></mxCell><mxCell id="4" value="Начальные присвоения" style="rounded=0;whiteSpace=wrap;html=1;" parent="1" vertex="1"><mxGeometry x="222" y="100" width="120" height="40" as="geometry"/></mxCell><mxCell id="25" style="edgeStyle=orthogonalEdgeStyle;rounded=0;orthogonalLoop=1;jettySize=auto;html=1;" parent="1" source="5" target="7" edge="1"><mxGeometry relative="1" as="geometry"/></mxCell><mxCell id="37" style="edgeStyle=orthogonalEdgeStyle;rounded=0;orthogonalLoop=1;jettySize=auto;html=1;exitX=1;exitY=0.5;exitDx=0;exitDy=0;entryX=0;entryY=0.5;entryDx=0;entryDy=0;" parent="1" source="5" target="35" edge="1"><mxGeometry relative="1" as="geometry"/></mxCell><mxCell id="5" value="ОС&lt;br&gt;поступление&lt;br&gt;заявки" style="rhombus;whiteSpace=wrap;html=1;" parent="1" vertex="1"><mxGeometry x="222" y="280" width="120" height="80" as="geometry"/></mxCell><mxCell id="24" style="edgeStyle=orthogonalEdgeStyle;rounded=0;orthogonalLoop=1;jettySize=auto;html=1;exitX=0.5;exitY=1;exitDx=0;exitDy=0;entryX=0.5;entryY=0;entryDx=0;entryDy=0;" parent="1" source="6" target="5" edge="1"><mxGeometry relative="1" as="geometry"/></mxCell><mxCell id="6" value="Выбирается ОС с приоритетом 0 и минимальным Тос" style="rounded=0;whiteSpace=wrap;html=1;" parent="1" vertex="1"><mxGeometry x="222" y="180" width="120" height="60" as="geometry"/></mxCell><mxCell id="26" style="edgeStyle=orthogonalEdgeStyle;rounded=0;orthogonalLoop=1;jettySize=auto;html=1;exitX=0.5;exitY=1;exitDx=0;exitDy=0;entryX=0.5;entryY=0;entryDx=0;entryDy=0;" parent="1" source="7" target="9" edge="1"><mxGeometry relative="1" as="geometry"/></mxCell><mxCell id="7" value="Генерация следующей заявки" style="rounded=0;whiteSpace=wrap;html=1;" parent="1" vertex="1"><mxGeometry x="67" y="373" width="120" height="60" as="geometry"/></mxCell><mxCell id="27" style="edgeStyle=orthogonalEdgeStyle;rounded=0;orthogonalLoop=1;jettySize=auto;html=1;exitX=0.5;exitY=1;exitDx=0;exitDy=0;" parent="1" source="9" target="11" edge="1"><mxGeometry relative="1" as="geometry"/></mxCell><mxCell id="32" style="edgeStyle=orthogonalEdgeStyle;rounded=0;orthogonalLoop=1;jettySize=auto;html=1;exitX=1;exitY=0.5;exitDx=0;exitDy=0;entryX=0;entryY=0.5;entryDx=0;entryDy=0;" parent="1" source="9" target="17" edge="1"><mxGeometry relative="1" as="geometry"/></mxCell><mxCell id="9" value="Есть&lt;br&gt;свободный&lt;br&gt;прибор" style="rhombus;whiteSpace=wrap;html=1;" parent="1" vertex="1"><mxGeometry x="67" y="463" width="120" height="80" as="geometry"/></mxCell><mxCell id="28" style="edgeStyle=orthogonalEdgeStyle;rounded=0;orthogonalLoop=1;jettySize=auto;html=1;exitX=0.5;exitY=1;exitDx=0;exitDy=0;entryX=0.5;entryY=0;entryDx=0;entryDy=0;" parent="1" source="11" target="12" edge="1"><mxGeometry relative="1" as="geometry"/></mxCell><mxCell id="29" style="edgeStyle=orthogonalEdgeStyle;rounded=0;orthogonalLoop=1;jettySize=auto;html=1;exitX=1;exitY=0.5;exitDx=0;exitDy=0;" parent="1" source="11" target="13" edge="1"><mxGeometry relative="1" as="geometry"/></mxCell><mxCell id="11" value="Свободный&lt;br&gt;прибор = 1" style="rhombus;whiteSpace=wrap;html=1;" parent="1" vertex="1"><mxGeometry x="67" y="563" width="120" height="80" as="geometry"/></mxCell><mxCell id="30" style="edgeStyle=orthogonalEdgeStyle;rounded=0;orthogonalLoop=1;jettySize=auto;html=1;exitX=0.5;exitY=1;exitDx=0;exitDy=0;" parent="1" source="12" target="15" edge="1"><mxGeometry relative="1" as="geometry"/></mxCell><mxCell id="12" value="Выберить прибор с наивысшим приоритетом" style="rounded=0;whiteSpace=wrap;html=1;" parent="1" vertex="1"><mxGeometry x="67" y="673" width="120" height="60" as="geometry"/></mxCell><mxCell id="31" style="edgeStyle=orthogonalEdgeStyle;rounded=0;orthogonalLoop=1;jettySize=auto;html=1;entryX=0.5;entryY=0;entryDx=0;entryDy=0;" parent="1" source="13" target="15" edge="1"><mxGeometry relative="1" as="geometry"/></mxCell><mxCell id="13" value="Выберить&lt;br&gt;единственный прибор" style="rounded=0;whiteSpace=wrap;html=1;" parent="1" vertex="1"><mxGeometry x="208" y="673" width="120" height="60" as="geometry"/></mxCell><mxCell id="45" style="edgeStyle=orthogonalEdgeStyle;rounded=0;orthogonalLoop=1;jettySize=auto;html=1;exitX=0.5;exitY=1;exitDx=0;exitDy=0;" parent="1" source="15" edge="1"><mxGeometry relative="1" as="geometry"><mxPoint x="197" y="960" as="targetPoint"/></mxGeometry></mxCell><mxCell id="15" value="Заявка помещается на прибор" style="rounded=0;whiteSpace=wrap;html=1;" parent="1" vertex="1"><mxGeometry x="137" y="783" width="120" height="60" as="geometry"/></mxCell><mxCell id="47" style="edgeStyle=orthogonalEdgeStyle;rounded=0;orthogonalLoop=1;jettySize=auto;html=1;exitX=0.5;exitY=1;exitDx=0;exitDy=0;" parent="1" source="16" edge="1"><mxGeometry relative="1" as="geometry"><mxPoint x="361" y="960" as="targetPoint"/></mxGeometry></mxCell><mxCell id="16" value="Отказ&amp;nbsp;текущии заявки" style="rounded=0;whiteSpace=wrap;html=1;" parent="1" vertex="1"><mxGeometry x="301" y="573" width="120" height="60" as="geometry"/></mxCell><mxCell id="33" style="edgeStyle=orthogonalEdgeStyle;rounded=0;orthogonalLoop=1;jettySize=auto;html=1;exitX=0.5;exitY=1;exitDx=0;exitDy=0;entryX=0.5;entryY=0;entryDx=0;entryDy=0;" parent="1" source="17" target="16" edge="1"><mxGeometry relative="1" as="geometry"/></mxCell><mxCell id="34" style="edgeStyle=orthogonalEdgeStyle;rounded=0;orthogonalLoop=1;jettySize=auto;html=1;exitX=1;exitY=0.5;exitDx=0;exitDy=0;" parent="1" source="17" target="18" edge="1"><mxGeometry relative="1" as="geometry"/></mxCell><mxCell id="17" value="Буфер полон" style="rhombus;whiteSpace=wrap;html=1;" parent="1" vertex="1"><mxGeometry x="301" y="463" width="120" height="80" as="geometry"/></mxCell><mxCell id="48" style="edgeStyle=orthogonalEdgeStyle;rounded=0;orthogonalLoop=1;jettySize=auto;html=1;exitX=0.5;exitY=1;exitDx=0;exitDy=0;" parent="1" source="18" edge="1"><mxGeometry relative="1" as="geometry"><mxPoint x="521" y="960" as="targetPoint"/></mxGeometry></mxCell><mxCell id="18" value="Помещение заявки в буфер" style="rounded=0;whiteSpace=wrap;html=1;" parent="1" vertex="1"><mxGeometry x="461" y="573" width="120" height="60" as="geometry"/></mxCell><mxCell id="38" style="edgeStyle=orthogonalEdgeStyle;rounded=0;orthogonalLoop=1;jettySize=auto;html=1;entryX=0.5;entryY=0;entryDx=0;entryDy=0;" parent="1" source="35" target="36" edge="1"><mxGeometry relative="1" as="geometry"/></mxCell><mxCell id="39" style="edgeStyle=orthogonalEdgeStyle;rounded=0;orthogonalLoop=1;jettySize=auto;html=1;exitX=1;exitY=0.5;exitDx=0;exitDy=0;entryX=0;entryY=0.5;entryDx=0;entryDy=0;" parent="1" source="35" target="3" edge="1"><mxGeometry relative="1" as="geometry"/></mxCell><mxCell id="35" value="ОС&lt;br&gt;освобождение&lt;br&gt;прибора" style="rhombus;whiteSpace=wrap;html=1;" parent="1" vertex="1"><mxGeometry x="610" y="280" width="120" height="80" as="geometry"/></mxCell><mxCell id="41" style="edgeStyle=orthogonalEdgeStyle;rounded=0;orthogonalLoop=1;jettySize=auto;html=1;exitX=0.5;exitY=1;exitDx=0;exitDy=0;" parent="1" source="36" target="40" edge="1"><mxGeometry relative="1" as="geometry"/></mxCell><mxCell id="50" style="edgeStyle=orthogonalEdgeStyle;rounded=0;orthogonalLoop=1;jettySize=auto;html=1;entryX=0.5;entryY=0;entryDx=0;entryDy=0;" parent="1" source="36" target="42" edge="1"><mxGeometry relative="1" as="geometry"><Array as="points"><mxPoint x="775" y="423"/></Array></mxGeometry></mxCell><mxCell id="36" value="Буфер пуст" style="rhombus;whiteSpace=wrap;html=1;" parent="1" vertex="1"><mxGeometry x="610" y="383" width="120" height="80" as="geometry"/></mxCell><mxCell id="49" style="edgeStyle=orthogonalEdgeStyle;rounded=0;orthogonalLoop=1;jettySize=auto;html=1;" parent="1" source="40" edge="1"><mxGeometry relative="1" as="geometry"><mxPoint x="670" y="960" as="targetPoint"/></mxGeometry></mxCell><mxCell id="40" value="Прибор в простой.&lt;br&gt;Признак = 1" style="rounded=0;whiteSpace=wrap;html=1;glass=0;" parent="1" vertex="1"><mxGeometry x="610" y="503" width="120" height="60" as="geometry"/></mxCell><mxCell id="44" style="edgeStyle=orthogonalEdgeStyle;rounded=0;orthogonalLoop=1;jettySize=auto;html=1;exitX=0.5;exitY=1;exitDx=0;exitDy=0;" parent="1" source="42" edge="1"><mxGeometry relative="1" as="geometry"><mxPoint x="280" y="160" as="targetPoint"/><Array as="points"><mxPoint x="775" y="960"/><mxPoint x="20" y="960"/><mxPoint x="20" y="160"/></Array></mxGeometry></mxCell><mxCell id="42" value="&lt;font style=&quot;font-size: 12px&quot;&gt;На прибор ставится&lt;br&gt;заявка, которая с наивысшим приоритетом. Если приоритет одинаковый&amp;nbsp;выбрать последнюю поступившую&lt;/font&gt;" style="rounded=0;whiteSpace=wrap;html=1;" parent="1" vertex="1"><mxGeometry x="690" y="590" width="170" height="103" as="geometry"/></mxCell><mxCell id="53" value="&lt;font style=&quot;font-size: 10px&quot;&gt;&lt;font color=&quot;#ff3333&quot;&gt;БООС&lt;/font&gt;&lt;br&gt;&lt;br&gt;&lt;br&gt;&lt;br&gt;&lt;br&gt;&lt;/font&gt;" style="rounded=1;whiteSpace=wrap;html=1;fillColor=none;strokeColor=#FF3333;dashed=1;align=left;" parent="1" vertex="1"><mxGeometry x="187" y="168.75" width="190" height="82.5" as="geometry"/></mxCell><mxCell id="54" value="&lt;font style=&quot;font-size: 12px&quot;&gt;&lt;font color=&quot;#00ff00&quot; style=&quot;font-size: 12px&quot;&gt;БАС&lt;br&gt;&lt;br&gt;&lt;br&gt;&lt;br&gt;&lt;br&gt;&lt;/font&gt;&lt;br&gt;&lt;/font&gt;" style="rounded=1;whiteSpace=wrap;html=1;fillColor=none;dashed=1;align=left;strokeColor=#00FF00;" parent="1" vertex="1"><mxGeometry x="200" y="276.5" width="540" height="88.5" as="geometry"/></mxCell><mxCell id="58" value="да" style="text;html=1;strokeColor=none;fillColor=none;align=center;verticalAlign=middle;whiteSpace=wrap;rounded=0;" vertex="1" parent="1"><mxGeometry x="730" y="404" width="40" height="20" as="geometry"/></mxCell><mxCell id="59" value="да" style="text;html=1;strokeColor=none;fillColor=none;align=center;verticalAlign=middle;whiteSpace=wrap;rounded=0;" vertex="1" parent="1"><mxGeometry x="450" y="483" width="40" height="20" as="geometry"/></mxCell><mxCell id="60" value="да" style="text;html=1;strokeColor=none;fillColor=none;align=center;verticalAlign=middle;whiteSpace=wrap;rounded=0;" vertex="1" parent="1"><mxGeometry x="217" y="483" width="40" height="20" as="geometry"/></mxCell><mxCell id="62" value="да" style="text;html=1;strokeColor=none;fillColor=none;align=center;verticalAlign=middle;whiteSpace=wrap;rounded=0;" vertex="1" parent="1"><mxGeometry x="205" y="582" width="40" height="20" as="geometry"/></mxCell><mxCell id="63" value="да" style="text;html=1;strokeColor=none;fillColor=none;align=center;verticalAlign=middle;whiteSpace=wrap;rounded=0;" vertex="1" parent="1"><mxGeometry x="139" y="300" width="40" height="20" as="geometry"/></mxCell><mxCell id="65" value="нет" style="text;html=1;strokeColor=none;fillColor=none;align=center;verticalAlign=middle;whiteSpace=wrap;rounded=0;" vertex="1" parent="1"><mxGeometry x="440" y="300" width="40" height="20" as="geometry"/></mxCell><mxCell id="66" value="нет" style="text;html=1;strokeColor=none;fillColor=none;align=center;verticalAlign=middle;whiteSpace=wrap;rounded=0;" vertex="1" parent="1"><mxGeometry x="720" y="300" width="40" height="20" as="geometry"/></mxCell><mxCell id="67" value="да" style="text;html=1;strokeColor=none;fillColor=none;align=center;verticalAlign=middle;whiteSpace=wrap;rounded=0;" vertex="1" parent="1"><mxGeometry x="670" y="360" width="40" height="20" as="geometry"/></mxCell><mxCell id="68" value="нет" style="text;html=1;strokeColor=none;fillColor=none;align=center;verticalAlign=middle;whiteSpace=wrap;rounded=0;" vertex="1" parent="1"><mxGeometry x="670" y="470" width="40" height="20" as="geometry"/></mxCell><mxCell id="69" value="нет" style="text;html=1;strokeColor=none;fillColor=none;align=center;verticalAlign=middle;whiteSpace=wrap;rounded=0;" vertex="1" parent="1"><mxGeometry x="360" y="543" width="40" height="20" as="geometry"/></mxCell><mxCell id="70" value="нет" style="text;html=1;strokeColor=none;fillColor=none;align=center;verticalAlign=middle;whiteSpace=wrap;rounded=0;" vertex="1" parent="1"><mxGeometry x="123" y="541" width="40" height="20" as="geometry"/></mxCell><mxCell id="71" value="нет" style="text;html=1;strokeColor=none;fillColor=none;align=center;verticalAlign=middle;whiteSpace=wrap;rounded=0;" vertex="1" parent="1"><mxGeometry x="124" y="646" width="40" height="20" as="geometry"/></mxCell></root></mxGraphModel></diagram></mxfile>